<svg xmlns="http://www.w3.org/2000/svg"
     viewBox="0 0 342.93 407.45">
  <defs>
    <style>.cls-1{fill:#010002;}</style>
  </defs>
  <g id="Layer_2"
     data-name="Layer 2">
    <g id="Capa_1"
       data-name="Capa 1">
      <path class="cls-1"
            d="M222.84,116.51a8.13,8.13,0,1,0,0-16.25H111.22a8.13,8.13,0,1,0,0,16.25Z" />
      <path class="cls-1"
            d="M334.8,100.26H279.43a8.13,8.13,0,0,0,0,16.26h47.24V391.2H16.26V116.51H60.79a8.13,8.13,0,1,0,0-16.25H8.13A8.12,8.12,0,0,0,0,108.39V399.32a8.12,8.12,0,0,0,8.13,8.13H334.8a8.12,8.12,0,0,0,8.13-8.13V108.39A8.12,8.12,0,0,0,334.8,100.26Z" />
      <path class="cls-1"
            d="M250.33,134.8a8.14,8.14,0,0,0,8.13-8.13V67.39C258.46,30.24,218.34,0,168.84,0,119.53,0,79.42,30.24,79.42,67.39v59.28a8.13,8.13,0,0,0,16.26,0V67.39c0-28.19,32.83-51.13,73.36-51.13,40.34,0,73.16,22.94,73.16,51.13v59.28A8.12,8.12,0,0,0,250.33,134.8Z" />
      <path class="cls-1"
            d="M66.63,147.57a20.93,20.93,0,0,0,41.85,0,8.13,8.13,0,0,0-16.26,0,4.67,4.67,0,0,1-9.33,0,8.13,8.13,0,1,0-16.26,0Z" />
      <path class="cls-1"
            d="M250.33,168.47a20.94,20.94,0,0,0,20.92-20.9,8.13,8.13,0,0,0-16.26,0,4.67,4.67,0,0,1-9.33,0,8.13,8.13,0,0,0-16.26,0A20.94,20.94,0,0,0,250.33,168.47Z" />
    </g>
  </g>
</svg>